<svg version="1.1" id="Layer_1" xmlns="http://www.w3.org/2000/svg" xmlns:xlink="http://www.w3.org/1999/xlink" x="0px" y="0px"
	 width="100%" viewBox="0 0 1024 1024" enable-background="new 0 0 1024 1024" xml:space="preserve">
<path fill="#FFFFFE" opacity="0.000000" stroke="none" 
	d="
M1.000000,397.000000 
	C1.000000,264.666687 1.000000,132.833359 1.000000,1.000035 
	C342.333282,1.000024 683.666565,1.000024 1025.000000,1.000012 
	C1025.000000,342.333252 1025.000000,683.666504 1025.000000,1024.999756 
	C683.666809,1024.999878 342.333618,1024.999878 1.000207,1025.000000 
	C1.000000,815.833313 1.000000,606.666687 1.000000,397.000000 
M341.999908,744.997620 
	C341.999908,744.997620 342.049988,744.936951 342.260223,745.572693 
	C343.690155,746.476501 345.120087,747.380310 346.653625,748.399963 
	C346.653625,748.399963 346.765961,748.507385 346.957214,749.107361 
	C352.697357,753.285889 358.335541,757.613831 364.197662,761.613525 
	C378.934113,771.668091 394.436066,780.554626 411.434967,785.943420 
	C429.418121,791.644287 447.763336,796.316956 466.150177,800.576355 
	C473.926819,802.377869 482.213806,801.976196 491.079010,802.691101 
	C492.722473,802.761597 494.365967,802.832092 496.511566,803.425293 
	C498.370575,803.343933 500.229553,803.262512 502.762085,803.185242 
	C503.432739,803.237976 504.103394,803.290649 505.158203,804.013672 
	C505.743927,804.282837 506.334656,804.797119 506.914642,804.785156 
	C520.360718,804.510071 533.948853,805.285583 547.213745,803.570251 
	C563.081909,801.518311 578.786316,797.787903 594.361694,793.968994 
	C627.237793,785.908020 656.608826,770.360657 683.839661,750.554321 
	C705.101501,735.089539 722.862976,716.062927 739.129822,695.578735 
	C742.177734,691.740540 744.524109,687.345276 747.112122,683.081848 
	C747.112122,683.081848 747.234497,683.168213 747.885986,683.012207 
	C749.588074,680.318115 751.290222,677.624084 753.332947,674.336609 
	C763.731384,656.324341 773.585205,638.107544 780.560303,618.364014 
	C788.700989,595.321289 795.053223,571.832336 796.634583,547.506897 
	C798.793335,514.299377 796.485291,481.350891 787.530090,448.990967 
	C777.324524,412.112732 761.105103,378.487762 737.526611,348.197937 
	C705.080994,306.517151 664.566895,276.093323 615.086304,257.645233 
	C593.808655,249.712158 571.847290,243.432571 549.370728,241.460800 
	C527.408569,239.534119 505.139862,241.101852 482.149414,241.032974 
	C480.988403,241.105637 479.784882,241.004593 478.672760,241.276871 
	C459.971588,245.855148 441.050171,249.711487 422.639893,255.261475 
	C388.893250,265.434845 359.343689,283.612183 332.438477,306.055939 
	C314.997803,320.604553 300.169861,337.767609 286.680328,355.959473 
	C280.398193,364.431458 275.525513,373.948608 269.991882,382.998566 
	C269.991882,382.998566 269.995941,383.021393 269.455139,383.381134 
	C268.943695,384.569305 268.432251,385.757446 267.981079,387.009125 
	C267.981079,387.009125 267.938812,386.933441 267.383057,387.293793 
	C266.643616,388.881836 265.904144,390.469849 265.050232,392.092072 
	C265.050232,392.092072 265.087494,392.205597 264.615479,392.490723 
	C264.457855,392.999512 264.300232,393.508301 264.031921,394.048035 
	C264.031921,394.048035 264.073669,394.155182 263.527435,394.518555 
	C262.746674,396.367523 261.965912,398.216492 261.065186,400.111115 
	C261.065186,400.111115 261.098724,400.235046 260.631378,400.513489 
	C260.482452,401.015625 260.333557,401.517761 260.060730,402.075409 
	C260.060730,402.075409 260.094940,402.206787 259.542542,402.571411 
	C258.661469,404.704132 257.780396,406.836853 256.400146,409.445160 
	C254.914032,413.148590 253.377243,416.832611 251.949570,420.558472 
	C236.406189,461.122375 229.800751,502.936005 234.055496,546.343994 
	C236.916824,575.535950 243.645920,603.797668 255.050415,630.763184 
	C273.866547,675.253357 301.634247,713.158569 340.168640,743.543030 
	C340.799408,744.011353 341.430176,744.479736 341.999908,744.997620 
M858.073181,362.565399 
	C858.313782,362.850250 858.554443,363.135101 858.771423,363.736847 
	C858.771423,363.736847 858.921082,364.017212 858.934753,364.744843 
	C859.964233,366.817261 860.993713,368.889679 861.994141,370.991425 
	C861.994141,370.991425 862.035278,370.990997 862.068604,371.563171 
	C862.296204,371.862427 862.523743,372.161682 862.823242,373.186310 
	C866.749329,383.597748 871.086121,393.875824 874.520386,404.447052 
	C882.960510,430.427368 888.681091,457.006042 891.346252,484.246796 
	C894.519348,516.679443 893.937622,548.999207 888.445435,581.112549 
	C885.874207,596.146423 882.156677,610.984192 878.495483,626.395874 
	C878.343567,627.263977 878.191650,628.132080 877.884460,629.381958 
	C877.884460,629.381958 877.902161,629.793762 877.421265,630.354858 
	C876.286804,634.237244 875.152283,638.119690 873.995239,642.002991 
	C873.995239,642.002991 874.007141,642.023071 873.492798,642.505981 
	C861.184937,676.822144 845.247559,709.188232 824.222107,739.162842 
	C802.875000,769.596008 777.063660,795.454407 748.243164,818.650208 
	C703.565735,854.608337 652.865540,877.809265 597.213013,890.599670 
	C586.220520,893.126099 575.047974,894.868958 563.494019,896.933594 
	C563.494019,896.933594 563.041504,897.045654 562.134766,896.950134 
	C559.333069,897.179016 556.528015,897.373169 553.730225,897.642578 
	C535.579346,899.390076 517.467163,901.595886 499.160492,899.419922 
	C489.792328,898.306396 480.344604,897.862305 470.127502,897.007568 
	C468.773315,896.993591 467.419128,896.979614 465.388306,896.564209 
	C452.538300,894.006042 439.607361,891.795471 426.853058,888.826172 
	C384.348633,878.931152 344.726440,862.253967 308.677460,837.477173 
	C298.008057,830.143921 287.572693,822.470215 276.674011,814.392090 
	C272.225220,810.386169 267.817841,806.333191 263.320740,802.382263 
	C238.923004,780.947632 217.424042,756.855774 199.978302,729.526917 
	C189.720276,713.457642 180.887894,696.378845 172.554184,679.201111 
	C154.526764,642.042542 144.310287,602.557556 139.755325,561.575439 
	C138.728455,552.336548 137.974136,543.067444 137.208084,532.917419 
	C137.172348,528.343933 137.136612,523.770386 137.439468,518.429626 
	C139.964966,495.794312 141.929764,473.078522 145.163528,450.544861 
	C148.874084,424.688782 157.477341,400.090820 167.828003,376.227600 
	C182.648972,342.058014 201.770706,310.374084 225.252838,281.396912 
	C228.395340,277.519043 231.720963,273.780212 235.118164,270.122192 
	C236.748962,268.366211 238.911560,267.102264 240.531128,265.338043 
	C242.354141,263.352264 243.633865,260.852753 245.523773,258.947571 
	C247.441879,257.013977 248.301697,255.699509 245.950546,253.325562 
	C238.459473,245.761734 231.262756,237.906845 223.795029,230.319214 
	C220.104019,226.568924 216.068085,223.158127 211.948776,219.373779 
	C209.607178,222.179214 207.889755,224.652161 205.770340,226.711334 
	C186.431335,245.500534 170.500046,267.011871 155.797394,289.465393 
	C132.382431,325.224152 114.783287,363.677216 102.938576,404.767944 
	C89.775475,450.432312 83.568596,496.856354 87.304626,544.406311 
	C88.021790,553.533936 88.203400,562.727234 89.396103,571.789612 
	C93.203400,600.718262 99.778511,629.004211 108.700836,656.834167 
	C124.768265,706.950684 150.036789,752.042542 182.799561,792.884033 
	C203.263168,818.393555 226.826096,841.103699 252.665359,861.204590 
	C280.229706,882.647461 310.369202,899.879456 342.169342,914.343811 
	C368.944183,926.522339 396.676971,935.628418 425.478210,941.277283 
	C441.583588,944.436157 457.926453,946.384216 474.809692,949.333374 
	C492.881500,949.754150 510.951965,950.364563 529.025879,950.495422 
	C535.580444,950.542908 542.143311,949.444275 549.651794,948.889954 
	C569.226807,947.914978 588.570129,945.603638 607.750854,941.216187 
	C632.285522,935.604065 656.030823,927.724243 679.144043,917.988220 
	C691.341919,912.850159 702.982117,906.389343 714.881104,900.540100 
	C720.341492,897.855835 725.946716,895.432983 731.236755,892.449036 
	C734.040405,890.867493 736.097046,887.986206 738.866882,886.314697 
	C743.801270,883.337036 749.168884,881.073608 754.081787,878.064880 
	C759.415771,874.798340 764.572815,871.200623 769.560913,867.422363 
	C775.509338,862.916870 781.339478,858.229980 786.957886,853.320618 
	C792.926758,848.105042 798.663147,842.615173 804.365540,837.104797 
	C813.768921,828.018127 823.507812,819.222290 832.285645,809.559326 
	C842.178528,798.668945 851.919250,787.484131 860.350403,775.462524 
	C870.424683,761.098022 879.365662,745.900452 888.215698,730.724426 
	C902.689575,705.904663 913.876709,679.538574 922.017883,652.030701 
	C927.626465,633.080261 932.349731,613.820740 936.415894,594.478088 
	C938.932434,582.507263 939.476501,570.121826 941.037292,557.006348 
	C940.989929,534.364014 940.942566,511.721710 941.014954,488.171936 
	C939.074219,473.335968 937.417908,458.455994 935.130371,443.673706 
	C931.068542,417.425964 923.760498,391.971619 913.974426,367.349854 
	C898.658752,328.815674 879.037964,292.696686 853.166382,259.986420 
	C830.314636,231.094208 804.766052,204.941559 776.025818,182.097946 
	C751.228333,162.388123 723.927795,146.580338 694.719788,133.978043 
	C670.153809,123.378624 645.128906,114.300285 619.261108,107.570656 
	C610.642395,105.328461 601.850769,103.750656 592.902161,101.167885 
	C584.925598,99.785789 576.948975,98.403687 568.158569,96.886215 
	C507.162079,87.338440 447.689667,95.851913 388.124908,112.378304 
	C389.051178,115.806656 390.022797,119.402855 390.971832,123.789169 
	C392.294373,127.546646 393.616913,131.304123 394.994843,135.001602 
	C394.994843,135.001602 394.921143,135.036789 394.877777,135.818695 
	C395.866364,138.639877 396.854950,141.461075 397.873596,144.869568 
	C397.993439,145.241608 398.113251,145.613647 398.160553,146.765076 
	C399.661926,152.312332 401.163330,157.859573 402.620392,163.243011 
	C412.133820,160.784256 421.257660,158.349945 430.420807,156.073898 
	C449.194824,151.410614 468.038849,147.185486 487.435272,145.914856 
	C517.452759,143.948441 547.213318,145.649246 576.876465,150.742767 
	C609.335022,156.316299 640.613220,165.625015 670.626648,179.079239 
	C704.363586,194.202667 735.882202,213.050049 763.180664,238.140915 
	C777.848145,251.622253 791.718933,266.047363 805.130920,280.790985 
	C814.371033,290.948578 822.207642,302.382874 830.768311,313.254913 
	C830.768311,313.254913 830.700439,313.324341 830.788635,313.989075 
	C832.170227,316.016907 833.551819,318.044739 834.983215,319.992035 
	C834.983215,319.992035 834.916931,320.060913 835.008423,320.766846 
	C839.992004,329.189484 844.975586,337.612122 850.058960,346.596130 
	C850.352234,347.073273 850.645569,347.550415 850.962158,348.730072 
	C851.984131,350.489746 853.006104,352.249420 854.110962,354.571350 
	C854.400940,355.049896 854.690979,355.528442 854.986450,356.710815 
	C855.988403,358.476959 856.990417,360.243103 858.000000,362.000000 
	C858.000000,362.000000 857.989929,362.004578 858.073181,362.565399 
M260.468781,166.564316 
	C259.455566,189.976471 286.969269,204.932526 303.575134,195.008804 
	C322.204681,183.875717 328.303589,165.030869 315.454956,147.155991 
	C303.721954,130.833237 282.080994,131.901443 270.408722,143.002884 
	C263.865479,149.226151 260.892731,156.869766 260.468781,166.564316 
z"/>
<path fill="#D5B247" opacity="1.000000" stroke="none" 
	d="
M390.994446,122.999062 
	C390.022797,119.402855 389.051178,115.806656 388.124908,112.378304 
	C447.689667,95.851913 507.162079,87.338440 568.842224,97.213394 
	C577.396667,98.983429 585.267395,100.426277 593.138184,101.869125 
	C601.850769,103.750656 610.642395,105.328461 619.261108,107.570656 
	C645.128906,114.300285 670.153809,123.378624 694.719788,133.978043 
	C723.927795,146.580338 751.228333,162.388123 776.025818,182.097946 
	C804.766052,204.941559 830.314636,231.094208 853.166382,259.986420 
	C879.037964,292.696686 898.658752,328.815674 913.974426,367.349854 
	C923.760498,391.971619 931.068542,417.425964 935.130371,443.673706 
	C937.417908,458.455994 939.074219,473.335968 940.675598,488.923218 
	C940.225952,490.320801 940.019714,490.967041 940.019165,491.613434 
	C940.002625,512.482300 939.990723,533.351257 940.044800,554.219910 
	C940.048035,555.454834 940.606201,556.688354 940.906128,557.922485 
	C939.476501,570.121826 938.932434,582.507263 936.415894,594.478088 
	C932.349731,613.820740 927.626465,633.080261 922.017883,652.030701 
	C913.876709,679.538574 902.689575,705.904663 888.215698,730.724426 
	C879.365662,745.900452 870.424683,761.098022 860.350403,775.462524 
	C851.919250,787.484131 842.178528,798.668945 832.285645,809.559326 
	C823.507812,819.222290 813.768921,828.018127 804.365540,837.104797 
	C798.663147,842.615173 792.926758,848.105042 786.957886,853.320618 
	C781.339478,858.229980 775.509338,862.916870 769.560913,867.422363 
	C764.572815,871.200623 759.415771,874.798340 754.081787,878.064880 
	C749.168884,881.073608 743.801270,883.337036 738.866882,886.314697 
	C736.097046,887.986206 734.040405,890.867493 731.236755,892.449036 
	C725.946716,895.432983 720.341492,897.855835 714.881104,900.540100 
	C702.982117,906.389343 691.341919,912.850159 679.144043,917.988220 
	C656.030823,927.724243 632.285522,935.604065 607.750854,941.216187 
	C588.570129,945.603638 569.226807,947.914978 548.736511,948.875977 
	C523.268250,948.867310 498.715271,948.872620 474.162292,948.877869 
	C457.926453,946.384216 441.583588,944.436157 425.478210,941.277283 
	C396.676971,935.628418 368.944183,926.522339 342.169342,914.343811 
	C310.369202,899.879456 280.229706,882.647461 252.665359,861.204590 
	C226.826096,841.103699 203.263168,818.393555 182.799561,792.884033 
	C150.036789,752.042542 124.768265,706.950684 108.700836,656.834167 
	C99.778511,629.004211 93.203400,600.718262 89.396103,571.789612 
	C88.203400,562.727234 88.021790,553.533936 87.304626,544.406311 
	C83.568596,496.856354 89.775475,450.432312 102.938576,404.767944 
	C114.783287,363.677216 132.382431,325.224152 155.797394,289.465393 
	C170.500046,267.011871 186.431335,245.500534 205.770340,226.711334 
	C207.889755,224.652161 209.607178,222.179214 211.948776,219.373779 
	C216.068085,223.158127 220.104019,226.568924 223.795029,230.319214 
	C231.262756,237.906845 238.459473,245.761734 245.950546,253.325562 
	C248.301697,255.699509 247.441879,257.013977 245.523773,258.947571 
	C243.633865,260.852753 242.354141,263.352264 240.531128,265.338043 
	C238.911560,267.102264 236.748962,268.366211 235.118164,270.122192 
	C231.720963,273.780212 228.395340,277.519043 225.252838,281.396912 
	C201.770706,310.374084 182.648972,342.058014 167.828003,376.227600 
	C157.477341,400.090820 148.874084,424.688782 145.163528,450.544861 
	C141.929764,473.078522 139.964966,495.794312 137.210556,518.330933 
	C136.981644,511.861694 136.981644,505.491150 136.981644,499.120636 
	C136.767441,499.125366 136.553253,499.130096 136.339050,499.134827 
	C136.339050,515.326538 136.339050,531.518188 136.339050,547.709900 
	C136.590820,547.709900 136.842590,547.709900 137.094360,547.709900 
	C137.094360,543.077332 137.094360,538.444824 137.094360,533.812256 
	C137.974136,543.067444 138.728455,552.336548 139.755325,561.575439 
	C144.310287,602.557556 154.526764,642.042542 172.554184,679.201111 
	C180.887894,696.378845 189.720276,713.457642 199.978302,729.526917 
	C217.424042,756.855774 238.923004,780.947632 263.320740,802.382263 
	C267.817841,806.333191 272.225220,810.386169 276.738708,814.963379 
	C277.752869,817.061523 278.363190,819.043823 279.705383,820.043274 
	C290.629822,828.178406 301.578461,836.291748 312.758179,844.068909 
	C318.395416,847.990479 324.463104,851.314819 330.456421,854.696045 
	C334.928467,857.218994 339.576050,859.434875 344.176300,861.725647 
	C351.736359,865.490356 359.205750,869.467407 366.927765,872.867981 
	C374.847412,876.355530 382.947906,879.476013 391.112061,882.351868 
	C398.223938,884.856934 405.468170,887.060059 412.776886,888.910950 
	C419.728760,890.671387 426.886353,891.607849 433.866760,893.270569 
	C439.834991,894.692078 445.626312,896.862549 451.601135,898.247559 
	C454.949219,899.023621 458.665863,898.324036 461.949738,899.242737 
	C475.416809,903.010498 488.968750,902.143860 502.661194,901.157959 
	C512.024780,900.483704 521.476074,901.028931 530.888184,901.028931 
	C530.907959,901.271790 530.927734,901.514648 530.947510,901.757507 
	C529.631836,901.946472 528.316162,902.135437 527.000488,902.324402 
	C531.195496,902.623901 535.508545,903.401733 539.405762,902.459412 
	C547.143372,900.588623 554.620972,898.220032 562.833313,898.830322 
	C568.225952,899.231140 574.258911,900.688599 578.746704,895.516785 
	C579.235168,894.953735 580.875366,894.731323 581.566467,895.109375 
	C586.125793,897.603699 590.523438,893.927979 595.022766,894.901550 
	C595.691284,895.046204 596.907959,894.603638 597.238403,894.053040 
	C599.631226,890.065857 603.496826,891.225342 607.025513,890.944946 
	C609.899353,890.716614 612.890442,890.505188 615.565979,889.548767 
	C620.912048,887.637695 625.932495,884.736450 631.348572,883.118042 
	C641.340759,880.132141 651.806641,878.559509 661.567505,875.004333 
	C686.161438,866.046570 709.210999,853.935547 730.011475,837.920837 
	C744.174438,827.016418 758.501099,816.233337 771.805054,804.334351 
	C781.817566,795.379272 790.305115,784.722412 799.512085,774.860962 
	C801.626953,772.595947 804.154053,770.680603 806.062439,768.265381 
	C809.902283,763.405762 813.420227,758.293030 817.123840,753.324158 
	C819.091370,750.684570 821.361511,748.252869 823.156860,745.506348 
	C826.624939,740.201111 829.829224,734.724121 833.186829,729.345825 
	C838.065125,721.531494 843.612549,714.059814 847.748474,705.873047 
	C855.776489,689.982544 863.404175,673.858398 870.346924,657.470642 
	C872.327515,652.795593 875.551880,647.796326 874.007141,642.023071 
	C874.007141,642.023071 873.995239,642.002991 874.376526,641.957397 
	C878.312866,638.522949 878.656677,634.300842 877.902161,629.793762 
	C877.902161,629.793762 877.884460,629.381958 878.224609,628.974487 
	C878.696045,627.681641 878.827393,626.796265 878.958679,625.910828 
	C882.156677,610.984192 885.874207,596.146423 888.445435,581.112549 
	C893.937622,548.999207 894.519348,516.679443 891.346252,484.246796 
	C888.681091,457.006042 882.960510,430.427368 874.520386,404.447052 
	C871.086121,393.875824 866.749329,383.597748 862.797241,372.525604 
	C862.525879,371.573608 862.280579,371.282318 862.035278,370.990997 
	C862.035278,370.990997 861.994141,370.991425 862.020447,370.578247 
	C861.004822,368.115814 859.962952,366.066528 858.921082,364.017212 
	C858.921082,364.017212 858.771423,363.736847 858.776855,363.280701 
	C858.518188,362.551239 858.254089,362.277893 857.989929,362.004578 
	C857.989929,362.004578 858.000000,362.000000 858.012451,361.617645 
	C857.010193,359.492523 855.995544,357.749756 854.980957,356.006989 
	C854.690979,355.528442 854.400940,355.049896 854.323120,354.071930 
	C853.336548,351.724182 852.137695,349.875854 850.938904,348.027557 
	C850.645569,347.550415 850.352234,347.073273 850.275635,346.101196 
	C850.411682,344.689484 850.618591,343.609222 850.204895,342.881927 
	C846.951904,337.162720 843.708923,331.429169 840.180664,325.879486 
	C838.797485,323.703857 836.692932,321.986786 834.916931,320.060913 
	C834.916931,320.060913 834.983215,319.992035 834.990845,319.640076 
	C833.565796,317.300171 832.133118,315.312256 830.700439,313.324341 
	C830.700439,313.324341 830.768311,313.254913 830.824463,312.871979 
	C828.773376,309.023346 827.014465,305.278198 824.497681,302.141052 
	C814.382568,289.533203 804.546021,276.642273 793.627930,264.754791 
	C782.345337,252.470474 770.552795,240.488663 757.829773,229.740097 
	C745.243103,219.106781 731.336609,210.004898 717.767578,200.578857 
	C711.335388,196.110565 704.365662,192.409332 697.589661,188.445587 
	C694.389160,186.573380 691.145752,184.741730 687.787659,183.180161 
	C683.857300,181.352448 679.764160,179.877899 675.770996,178.181244 
	C667.201416,174.540222 658.718140,170.684937 650.066833,167.251724 
	C644.900818,165.201660 639.512756,163.685944 634.172852,162.104523 
	C623.737183,159.014008 613.345398,155.719482 602.783630,153.127899 
	C593.974976,150.966476 584.981995,149.480789 576.010681,148.080017 
	C567.693787,146.781448 559.297974,145.987793 550.935974,144.979538 
	C546.017822,144.386536 541.106323,143.722260 536.176880,143.243729 
	C528.450989,142.493729 520.679016,141.078918 512.987732,141.402252 
	C503.621948,141.795990 494.343262,144.513657 484.985046,144.785782 
	C462.797699,145.430878 441.374420,150.153915 420.043488,155.558578 
	C414.539459,156.953140 409.243896,156.700424 404.365051,154.401672 
	C402.460663,153.504379 401.733002,150.197449 400.346619,148.067978 
	C399.819519,147.258362 398.947784,146.673157 398.233093,145.985687 
	C398.113251,145.613647 397.993439,145.241608 397.915833,144.132050 
	C397.846893,140.281174 398.931580,136.733276 394.921143,135.036789 
	C394.921143,135.036789 394.994843,135.001602 395.002472,134.611130 
	C393.173523,130.658340 396.083893,125.397331 390.994446,122.999062 
z"/>
<path fill="#D5B247" opacity="1.000000" stroke="none" 
	d="
M496.009430,802.902588 
	C494.365967,802.832092 492.722473,802.761597 490.464600,802.315430 
	C485.601746,801.576599 481.300293,801.520691 477.113983,800.797852 
	C457.352966,797.385681 437.892090,792.843689 418.883118,786.262573 
	C395.017151,777.999756 373.245605,765.944580 352.659088,751.517090 
	C350.870209,750.263428 348.738434,749.499084 346.765930,748.507446 
	C346.765961,748.507385 346.653625,748.399963 346.602264,747.994263 
	C345.050598,746.704651 343.550293,745.820801 342.049988,744.936951 
	C342.049988,744.936951 341.999908,744.997620 341.991760,744.649414 
	C341.312927,743.856934 340.642273,743.412720 339.971588,742.968445 
	C301.634247,713.158569 273.866547,675.253357 255.050415,630.763184 
	C243.645920,603.797668 236.916824,575.535950 234.055496,546.343994 
	C229.800751,502.936005 236.406189,461.122375 251.949570,420.558472 
	C253.377243,416.832611 254.914032,413.148590 256.986145,409.071320 
	C258.413086,406.533905 259.253998,404.370331 260.094910,402.206787 
	C260.094940,402.206787 260.060730,402.075409 260.331421,401.888519 
	C260.767609,401.212769 260.933167,400.723907 261.098724,400.235046 
	C261.098724,400.235046 261.065186,400.111115 261.479645,400.016907 
	C262.620636,398.000183 263.347137,396.077698 264.073669,394.155182 
	C264.073669,394.155182 264.031921,394.048035 264.305420,393.875671 
	C264.748444,393.204071 264.917969,392.704834 265.087524,392.205597 
	C265.087494,392.205597 265.050232,392.092072 265.461487,392.008057 
	C266.561462,390.260529 267.250153,388.596985 267.938812,386.933441 
	C267.938812,386.933441 267.981079,387.009125 268.317078,386.937622 
	C269.100708,385.584564 269.548340,384.302979 269.995941,383.021393 
	C269.995941,383.021393 269.991882,382.998566 270.352112,382.966919 
	C272.329529,380.916626 274.026703,378.956451 275.550720,376.869781 
	C284.402374,364.750244 292.694366,352.172607 302.230103,340.620270 
	C308.071228,333.543884 316.379303,328.547516 322.553619,321.692963 
	C334.033020,308.948822 348.049469,299.537659 362.023956,290.090668 
	C383.380127,275.653564 406.909760,265.379852 430.695251,255.715012 
	C434.988861,253.970367 439.417816,252.496811 443.886780,251.272125 
	C446.077332,250.671829 449.441193,251.858765 450.655365,250.633209 
	C455.257263,245.988037 460.801819,247.197556 466.197937,246.961929 
	C467.819122,246.891129 470.185303,247.092834 470.901886,246.162277 
	C473.293060,243.056961 476.302124,242.869522 479.718201,242.890762 
	C480.810364,242.897552 481.909668,241.753235 483.005737,241.135620 
	C505.139862,241.101852 527.408569,239.534119 549.370728,241.460800 
	C571.847290,243.432571 593.808655,249.712158 615.086304,257.645233 
	C664.566895,276.093323 705.080994,306.517151 737.526611,348.197937 
	C761.105103,378.487762 777.324524,412.112732 787.530090,448.990967 
	C796.485291,481.350891 798.793335,514.299377 796.634583,547.506897 
	C795.053223,571.832336 788.700989,595.321289 780.560303,618.364014 
	C773.585205,638.107544 763.731384,656.324341 752.825012,674.709412 
	C750.622925,677.777588 748.928711,680.472900 747.234497,683.168213 
	C747.234497,683.168213 747.112122,683.081848 746.817322,683.219299 
	C744.881836,685.408386 743.366760,687.577087 741.580383,689.492798 
	C729.065369,702.913513 716.850525,716.642090 703.813599,729.538147 
	C695.370483,737.890076 686.276001,745.852844 676.460449,752.492615 
	C655.142273,766.913391 632.541382,778.965393 607.886658,787.080566 
	C583.669006,795.051880 558.989807,800.204773 533.598938,801.987061 
	C524.006165,802.660400 514.383240,802.903870 504.774048,803.343323 
	C504.103394,803.290649 503.432739,803.237976 502.069366,803.071899 
	C499.587585,802.939880 497.798492,802.921204 496.009430,802.902588 
M357.030212,691.002441 
	C357.030212,691.002441 357.158386,690.844421 357.063232,691.594910 
	C357.933197,693.115540 358.492249,694.979980 359.727325,696.096741 
	C364.873016,700.749329 369.742920,705.963257 375.592987,709.529114 
	C389.206604,717.827271 401.724030,727.717468 416.824829,733.911804 
	C435.468872,741.559448 454.364807,748.072388 473.835907,752.967712 
	C477.818054,753.968872 483.018372,751.617249 486.363922,753.332947 
	C492.456390,756.457275 497.534485,753.123901 503.969849,752.875549 
	C532.502319,753.694153 560.328613,749.803528 587.482422,740.850708 
	C638.390442,724.066223 678.612000,693.138733 708.117188,648.655518 
	C732.690247,611.608093 745.683167,570.955627 745.578491,525.932800 
	C745.500610,492.416504 740.314636,460.307556 726.729553,429.699646 
	C717.153931,408.125366 704.734985,388.379669 688.726990,370.818054 
	C673.502563,354.116089 656.905029,339.103180 637.853455,327.020416 
	C615.073975,312.573364 590.499084,302.655334 563.888123,297.132996 
	C535.382141,291.217407 506.966064,290.520691 478.310791,294.475067 
	C471.653442,295.393738 465.046082,296.934570 458.549591,298.685822 
	C451.938324,300.468018 445.468872,302.794373 438.980591,305.009247 
	C432.533600,307.210022 425.916870,309.091583 419.776093,311.969818 
	C410.556885,316.290924 401.302704,320.461243 393.442596,327.477692 
	C388.237640,332.123993 381.116943,334.550781 375.326996,338.640869 
	C371.397247,341.416840 368.379822,345.454285 364.789124,348.747375 
	C359.800201,353.322723 354.234436,357.340851 349.674377,362.295776 
	C342.155365,370.465820 334.839935,378.890198 328.156555,387.748901 
	C312.383240,408.656158 300.992432,431.805267 293.401855,456.933685 
	C286.230652,480.673706 284.626465,504.852814 284.813354,529.497620 
	C285.130066,571.254822 297.710388,609.208496 319.738403,643.986389 
	C329.385651,659.217468 341.848999,672.664978 353.015961,687.695679 
	C354.394073,688.744812 355.772156,689.793945 357.030212,691.002441 
z"/>
<path fill="#D3B860" opacity="1.000000" stroke="none" 
	d="
M873.750000,642.264526 
	C875.551880,647.796326 872.327515,652.795593 870.346924,657.470642 
	C863.404175,673.858398 855.776489,689.982544 847.748474,705.873047 
	C843.612549,714.059814 838.065125,721.531494 833.186829,729.345825 
	C829.829224,734.724121 826.624939,740.201111 823.156860,745.506348 
	C821.361511,748.252869 819.091370,750.684570 817.123840,753.324158 
	C813.420227,758.293030 809.902283,763.405762 806.062439,768.265381 
	C804.154053,770.680603 801.626953,772.595947 799.512085,774.860962 
	C790.305115,784.722412 781.817566,795.379272 771.805054,804.334351 
	C758.501099,816.233337 744.174438,827.016418 730.011475,837.920837 
	C709.210999,853.935547 686.161438,866.046570 661.567505,875.004333 
	C651.806641,878.559509 641.340759,880.132141 631.348572,883.118042 
	C625.932495,884.736450 620.912048,887.637695 615.565979,889.548767 
	C612.890442,890.505188 609.899353,890.716614 607.025513,890.944946 
	C603.496826,891.225342 599.631226,890.065857 597.238403,894.053040 
	C596.907959,894.603638 595.691284,895.046204 595.022766,894.901550 
	C590.523438,893.927979 586.125793,897.603699 581.566467,895.109375 
	C580.875366,894.731323 579.235168,894.953735 578.746704,895.516785 
	C574.258911,900.688599 568.225952,899.231140 562.833313,898.830322 
	C554.620972,898.220032 547.143372,900.588623 539.405762,902.459412 
	C535.508545,903.401733 531.195496,902.623901 527.000488,902.324402 
	C528.316162,902.135437 529.631836,901.946472 530.947510,901.757507 
	C530.927734,901.514648 530.907959,901.271790 530.888184,901.028931 
	C521.476074,901.028931 512.024780,900.483704 502.661194,901.157959 
	C488.968750,902.143860 475.416809,903.010498 461.949738,899.242737 
	C458.665863,898.324036 454.949219,899.023621 451.601135,898.247559 
	C445.626312,896.862549 439.834991,894.692078 433.866760,893.270569 
	C426.886353,891.607849 419.728760,890.671387 412.776886,888.910950 
	C405.468170,887.060059 398.223938,884.856934 391.112061,882.351868 
	C382.947906,879.476013 374.847412,876.355530 366.927765,872.867981 
	C359.205750,869.467407 351.736359,865.490356 344.176300,861.725647 
	C339.576050,859.434875 334.928467,857.218994 330.456421,854.696045 
	C324.463104,851.314819 318.395416,847.990479 312.758179,844.068909 
	C301.578461,836.291748 290.629822,828.178406 279.705383,820.043274 
	C278.363190,819.043823 277.752869,817.061523 276.916748,815.243652 
	C287.572693,822.470215 298.008057,830.143921 308.677460,837.477173 
	C344.726440,862.253967 384.348633,878.931152 426.853058,888.826172 
	C439.607361,891.795471 452.538300,894.006042 465.404785,896.800049 
	C464.930328,897.176575 464.439331,897.317383 463.948364,897.458191 
	C464.012177,897.751648 464.076019,898.045044 464.139862,898.338501 
	C466.404175,897.930847 468.668518,897.523254 470.932861,897.115723 
	C480.344604,897.862305 489.792328,898.306396 499.160492,899.419922 
	C517.467163,901.595886 535.579346,899.390076 553.730225,897.642578 
	C556.528015,897.373169 559.333069,897.179016 562.780640,897.246765 
	C564.305237,897.680420 565.184021,897.817383 566.062805,897.954407 
	C566.095276,897.732422 566.127808,897.510437 566.160278,897.288452 
	C565.426331,897.183350 564.692383,897.078247 563.958435,896.973145 
	C575.047974,894.868958 586.220520,893.126099 597.213013,890.599670 
	C652.865540,877.809265 703.565735,854.608337 748.243164,818.650208 
	C777.063660,795.454407 802.875000,769.596008 824.222107,739.162842 
	C845.247559,709.188232 861.184937,676.822144 873.750000,642.264526 
M607.619629,889.492371 
	C607.836365,889.546875 608.053040,889.601379 608.269775,889.655884 
	C608.131470,889.523254 607.993225,889.390564 607.619629,889.492371 
z"/>
<path fill="#DFB84A" opacity="1.000000" stroke="none" 
	d="
M260.485870,166.136337 
	C260.892731,156.869766 263.865479,149.226151 270.408722,143.002884 
	C282.080994,131.901443 303.721954,130.833237 315.454956,147.155991 
	C328.303589,165.030869 322.204681,183.875717 303.575134,195.008804 
	C286.969269,204.932526 259.455566,189.976471 260.485870,166.136337 
M279.349518,183.640244 
	C287.750458,190.396072 295.526398,189.817352 303.312469,182.096100 
	C311.049896,174.799622 313.081299,165.847641 308.901794,157.465317 
	C305.174591,149.990036 296.404205,145.216644 287.909729,147.028488 
	C274.796906,149.825394 267.253448,159.966110 272.641449,173.183746 
	C274.092987,176.744629 276.885925,179.758682 279.349518,183.640244 
z"/>
<path fill="#D4B86D" opacity="1.000000" stroke="none" 
	d="
M398.196838,146.375381 
	C398.947784,146.673157 399.819519,147.258362 400.346619,148.067978 
	C401.733002,150.197449 402.460663,153.504379 404.365051,154.401672 
	C409.243896,156.700424 414.539459,156.953140 420.043488,155.558578 
	C441.374420,150.153915 462.797699,145.430878 484.985046,144.785782 
	C494.343262,144.513657 503.621948,141.795990 512.987732,141.402252 
	C520.679016,141.078918 528.450989,142.493729 536.176880,143.243729 
	C541.106323,143.722260 546.017822,144.386536 550.935974,144.979538 
	C559.297974,145.987793 567.693787,146.781448 576.010681,148.080017 
	C584.981995,149.480789 593.974976,150.966476 602.783630,153.127899 
	C613.345398,155.719482 623.737183,159.014008 634.172852,162.104523 
	C639.512756,163.685944 644.900818,165.201660 650.066833,167.251724 
	C658.718140,170.684937 667.201416,174.540222 675.770996,178.181244 
	C679.764160,179.877899 683.857300,181.352448 687.787659,183.180161 
	C691.145752,184.741730 694.389160,186.573380 697.589661,188.445587 
	C704.365662,192.409332 711.335388,196.110565 717.767578,200.578857 
	C731.336609,210.004898 745.243103,219.106781 757.829773,229.740097 
	C770.552795,240.488663 782.345337,252.470474 793.627930,264.754791 
	C804.546021,276.642273 814.382568,289.533203 824.497681,302.141052 
	C827.014465,305.278198 828.773376,309.023346 830.776123,312.867798 
	C822.207642,302.382874 814.371033,290.948578 805.130920,280.790985 
	C791.718933,266.047363 777.848145,251.622253 763.180664,238.140915 
	C735.882202,213.050049 704.363586,194.202667 670.626648,179.079239 
	C640.613220,165.625015 609.335022,156.316299 576.876465,150.742767 
	C547.213318,145.649246 517.452759,143.948441 487.435272,145.914856 
	C468.038849,147.185486 449.194824,151.410614 430.420807,156.073898 
	C421.257660,158.349945 412.133820,160.784256 402.620392,163.243011 
	C401.163330,157.859573 399.661926,152.312332 398.196838,146.375381 
z"/>
<path fill="#D2B860" opacity="1.000000" stroke="none" 
	d="
M482.577576,241.084290 
	C481.909668,241.753235 480.810364,242.897552 479.718201,242.890762 
	C476.302124,242.869522 473.293060,243.056961 470.901886,246.162277 
	C470.185303,247.092834 467.819122,246.891129 466.197937,246.961929 
	C460.801819,247.197556 455.257263,245.988037 450.655365,250.633209 
	C449.441193,251.858765 446.077332,250.671829 443.886780,251.272125 
	C439.417816,252.496811 434.988861,253.970367 430.695251,255.715012 
	C406.909760,265.379852 383.380127,275.653564 362.023956,290.090668 
	C348.049469,299.537659 334.033020,308.948822 322.553619,321.692963 
	C316.379303,328.547516 308.071228,333.543884 302.230103,340.620270 
	C292.694366,352.172607 284.402374,364.750244 275.550720,376.869781 
	C274.026703,378.956451 272.329529,380.916626 270.363159,382.963623 
	C275.525513,373.948608 280.398193,364.431458 286.680328,355.959473 
	C300.169861,337.767609 314.997803,320.604553 332.438477,306.055939 
	C359.343689,283.612183 388.893250,265.434845 422.639893,255.261475 
	C441.050171,249.711487 459.971588,245.855148 478.672760,241.276871 
	C479.784882,241.004593 480.988403,241.105637 482.577576,241.084290 
M463.622406,245.496567 
	C463.837708,245.550522 464.052979,245.604477 464.268280,245.658417 
	C464.131165,245.527435 463.994049,245.396454 463.622406,245.496567 
z"/>
<path fill="#D4CDB0" opacity="1.000000" stroke="none" 
	d="
M504.966125,803.678467 
	C514.383240,802.903870 524.006165,802.660400 533.598938,801.987061 
	C558.989807,800.204773 583.669006,795.051880 607.886658,787.080566 
	C632.541382,778.965393 655.142273,766.913391 676.460449,752.492615 
	C686.276001,745.852844 695.370483,737.890076 703.813599,729.538147 
	C716.850525,716.642090 729.065369,702.913513 741.580383,689.492798 
	C743.366760,687.577087 744.881836,685.408386 746.858398,683.281921 
	C744.524109,687.345276 742.177734,691.740540 739.129822,695.578735 
	C722.862976,716.062927 705.101501,735.089539 683.839661,750.554321 
	C656.608826,770.360657 627.237793,785.908020 594.361694,793.968994 
	C578.786316,797.787903 563.081909,801.518311 547.213745,803.570251 
	C533.948853,805.285583 520.360718,804.510071 506.914642,804.785156 
	C506.334656,804.797119 505.743927,804.282837 504.966125,803.678467 
z"/>
<path fill="#D4CDB0" opacity="1.000000" stroke="none" 
	d="
M346.861572,748.807373 
	C348.738434,749.499084 350.870209,750.263428 352.659088,751.517090 
	C373.245605,765.944580 395.017151,777.999756 418.883118,786.262573 
	C437.892090,792.843689 457.352966,797.385681 477.113983,800.797852 
	C481.300293,801.520691 485.601746,801.576599 490.059509,802.257935 
	C482.213806,801.976196 473.926819,802.377869 466.150177,800.576355 
	C447.763336,796.316956 429.418121,791.644287 411.434967,785.943420 
	C394.436066,780.554626 378.934113,771.668091 364.197662,761.613525 
	C358.335541,757.613831 352.697357,753.285889 346.861572,748.807373 
z"/>
<path fill="#AFAA8E" opacity="1.000000" stroke="none" 
	d="
M474.485992,949.105591 
	C498.715271,948.872620 523.268250,948.867310 548.261841,948.865234 
	C542.143311,949.444275 535.580444,950.542908 529.025879,950.495422 
	C510.951965,950.364563 492.881500,949.754150 474.485992,949.105591 
z"/>
<path fill="#DDB01E" opacity="1.000000" stroke="none" 
	d="
M940.971680,557.464417 
	C940.606201,556.688354 940.048035,555.454834 940.044800,554.219910 
	C939.990723,533.351257 940.002625,512.482300 940.019165,491.613434 
	C940.019714,490.967041 940.225952,490.320801 940.615723,489.376923 
	C940.942566,511.721710 940.989929,534.364014 940.971680,557.464417 
z"/>
<path fill="#D4B86D" opacity="1.000000" stroke="none" 
	d="
M834.962646,320.413879 
	C836.692932,321.986786 838.797485,323.703857 840.180664,325.879486 
	C843.708923,331.429169 846.951904,337.162720 850.204895,342.881927 
	C850.618591,343.609222 850.411682,344.689484 850.225708,345.820496 
	C844.975586,337.612122 839.992004,329.189484 834.962646,320.413879 
z"/>
<path fill="#DDB427" opacity="1.000000" stroke="none" 
	d="
M137.151215,533.364868 
	C137.094360,538.444824 137.094360,543.077332 137.094360,547.709900 
	C136.842590,547.709900 136.590820,547.709900 136.339050,547.709900 
	C136.339050,531.518188 136.339050,515.326538 136.339050,499.134827 
	C136.553253,499.130096 136.767441,499.125366 136.981644,499.120636 
	C136.981644,505.491150 136.981644,511.861694 137.041260,518.714600 
	C137.136612,523.770386 137.172348,528.343933 137.151215,533.364868 
z"/>
<path fill="#ABA575" opacity="1.000000" stroke="none" 
	d="
M593.020142,101.518509 
	C585.267395,100.426277 577.396667,98.983429 569.249146,97.281082 
	C576.948975,98.403687 584.925598,99.785789 593.020142,101.518509 
z"/>
<path fill="#D3B860" opacity="1.000000" stroke="none" 
	d="
M877.661743,630.074341 
	C878.656677,634.300842 878.312866,638.522949 874.387817,641.956970 
	C875.152283,638.119690 876.286804,634.237244 877.661743,630.074341 
z"/>
<path fill="#D4B86D" opacity="1.000000" stroke="none" 
	d="
M390.983154,123.394119 
	C396.083893,125.397331 393.173523,130.658340 394.974762,134.641129 
	C393.616913,131.304123 392.294373,127.546646 390.983154,123.394119 
z"/>
<path fill="#D4B86D" opacity="1.000000" stroke="none" 
	d="
M394.899475,135.427734 
	C398.931580,136.733276 397.846893,140.281174 397.900818,143.838394 
	C396.854950,141.461075 395.866364,138.639877 394.899475,135.427734 
z"/>
<path fill="#D4CDB0" opacity="1.000000" stroke="none" 
	d="
M747.560242,683.090210 
	C748.928711,680.472900 750.622925,677.777588 752.654724,675.006104 
	C751.290222,677.624084 749.588074,680.318115 747.560242,683.090210 
z"/>
<path fill="#D4B86D" opacity="1.000000" stroke="none" 
	d="
M830.744507,313.656708 
	C832.133118,315.312256 833.565796,317.300171 834.965942,319.680359 
	C833.551819,318.044739 832.170227,316.016907 830.744507,313.656708 
z"/>
<path fill="#D4B86D" opacity="1.000000" stroke="none" 
	d="
M850.950562,348.378815 
	C852.137695,349.875854 853.336548,351.724182 854.281738,353.790771 
	C853.006104,352.249420 851.984131,350.489746 850.950562,348.378815 
z"/>
<path fill="#D4B86D" opacity="1.000000" stroke="none" 
	d="
M858.927917,364.381042 
	C859.962952,366.066528 861.004822,368.115814 862.034973,370.563599 
	C860.993713,368.889679 859.964233,366.817261 858.927917,364.381042 
z"/>
<path fill="#D2B860" opacity="1.000000" stroke="none" 
	d="
M259.818726,402.389099 
	C259.253998,404.370331 258.413086,406.533905 257.235718,408.833496 
	C257.780396,406.836853 258.661469,404.704132 259.818726,402.389099 
z"/>
<path fill="#D2B860" opacity="1.000000" stroke="none" 
	d="
M263.800537,394.336853 
	C263.347137,396.077698 262.620636,398.000183 261.539612,399.994080 
	C261.965912,398.216492 262.746674,396.367523 263.800537,394.336853 
z"/>
<path fill="#D4B86D" opacity="1.000000" stroke="none" 
	d="
M854.983704,356.358887 
	C855.995544,357.749756 857.010193,359.492523 858.008606,361.622253 
	C856.990417,360.243103 855.988403,358.476959 854.983704,356.358887 
z"/>
<path fill="#D2B860" opacity="1.000000" stroke="none" 
	d="
M267.660950,387.113617 
	C267.250153,388.596985 266.561462,390.260529 265.518738,391.990967 
	C265.904144,390.469849 266.643616,388.881836 267.660950,387.113617 
z"/>
<path fill="#D4CDB0" opacity="1.000000" stroke="none" 
	d="
M496.260498,803.163940 
	C497.798492,802.921204 499.587585,802.939880 501.732605,803.069824 
	C500.229553,803.262512 498.370575,803.343933 496.260498,803.163940 
z"/>
<path fill="#D4CDB0" opacity="1.000000" stroke="none" 
	d="
M342.155090,745.254822 
	C343.550293,745.820801 345.050598,746.704651 346.550476,747.936340 
	C345.120087,747.380310 343.690155,746.476501 342.155090,745.254822 
z"/>
<path fill="#D5B247" opacity="1.000000" stroke="none" 
	d="
M470.530182,897.061646 
	C468.668518,897.523254 466.404175,897.930847 464.139862,898.338501 
	C464.076019,898.045044 464.012177,897.751648 463.948364,897.458191 
	C464.439331,897.317383 464.930328,897.176575 465.743103,897.000732 
	C467.419128,896.979614 468.773315,896.993591 470.530182,897.061646 
z"/>
<path fill="#D2B860" opacity="1.000000" stroke="none" 
	d="
M269.725525,383.201263 
	C269.548340,384.302979 269.100708,385.584564 268.286957,386.905884 
	C268.432251,385.757446 268.943695,384.569305 269.725525,383.201263 
z"/>
<path fill="#D5B247" opacity="1.000000" stroke="none" 
	d="
M563.726196,896.953369 
	C564.692383,897.078247 565.426331,897.183350 566.160278,897.288452 
	C566.127808,897.510437 566.095276,897.732422 566.062805,897.954407 
	C565.184021,897.817383 564.305237,897.680420 563.234009,897.294556 
	C563.041504,897.045654 563.494019,896.933594 563.726196,896.953369 
z"/>
<path fill="#D3B860" opacity="1.000000" stroke="none" 
	d="
M878.727051,626.153320 
	C878.827393,626.796265 878.696045,627.681641 878.302246,628.783630 
	C878.191650,628.132080 878.343567,627.263977 878.727051,626.153320 
z"/>
<path fill="#D4CDB0" opacity="1.000000" stroke="none" 
	d="
M340.070129,743.255737 
	C340.642273,743.412720 341.312927,743.856934 342.022278,744.624634 
	C341.430176,744.479736 340.799408,744.011353 340.070129,743.255737 
z"/>
<path fill="#D2B860" opacity="1.000000" stroke="none" 
	d="
M260.865051,400.374268 
	C260.933167,400.723907 260.767609,401.212769 260.393372,401.860779 
	C260.333557,401.517761 260.482452,401.015625 260.865051,400.374268 
z"/>
<path fill="#D2B860" opacity="1.000000" stroke="none" 
	d="
M264.851501,392.348145 
	C264.917969,392.704834 264.748444,393.204071 264.360779,393.860168 
	C264.300232,393.508301 264.457855,392.999512 264.851501,392.348145 
z"/>
<path fill="#D4B86D" opacity="1.000000" stroke="none" 
	d="
M858.031555,362.284973 
	C858.254089,362.277893 858.518188,362.551239 858.788696,363.122253 
	C858.554443,363.135101 858.313782,362.850250 858.031555,362.284973 
z"/>
<path fill="#D4B86D" opacity="1.000000" stroke="none" 
	d="
M862.051941,371.277100 
	C862.280579,371.282318 862.525879,371.573608 862.761292,372.162903 
	C862.523743,372.161682 862.296204,371.862427 862.051941,371.277100 
z"/>
<path fill="#FEFEFE" opacity="0.000000" stroke="none" 
	d="
M353.033600,686.922363 
	C341.848999,672.664978 329.385651,659.217468 319.738403,643.986389 
	C297.710388,609.208496 285.130066,571.254822 284.813354,529.497620 
	C284.626465,504.852814 286.230652,480.673706 293.401855,456.933685 
	C300.992432,431.805267 312.383240,408.656158 328.156555,387.748901 
	C334.839935,378.890198 342.155365,370.465820 349.674377,362.295776 
	C354.234436,357.340851 359.800201,353.322723 364.789124,348.747375 
	C368.379822,345.454285 371.397247,341.416840 375.326996,338.640869 
	C381.116943,334.550781 388.237640,332.123993 393.442596,327.477692 
	C401.302704,320.461243 410.556885,316.290924 419.776093,311.969818 
	C425.916870,309.091583 432.533600,307.210022 438.980591,305.009247 
	C445.468872,302.794373 451.938324,300.468018 458.549591,298.685822 
	C465.046082,296.934570 471.653442,295.393738 478.310791,294.475067 
	C506.966064,290.520691 535.382141,291.217407 563.888123,297.132996 
	C590.499084,302.655334 615.073975,312.573364 637.853455,327.020416 
	C656.905029,339.103180 673.502563,354.116089 688.726990,370.818054 
	C704.734985,388.379669 717.153931,408.125366 726.729553,429.699646 
	C740.314636,460.307556 745.500610,492.416504 745.578491,525.932800 
	C745.683167,570.955627 732.690247,611.608093 708.117188,648.655518 
	C678.612000,693.138733 638.390442,724.066223 587.482422,740.850708 
	C560.328613,749.803528 532.502319,753.694153 503.160278,752.705933 
	C491.182068,750.986389 479.714233,750.547241 468.911865,747.637573 
	C450.724152,742.738770 432.569122,737.226685 415.155823,730.121155 
	C403.906189,725.530701 393.734589,718.034241 383.576416,711.111389 
	C374.419342,704.870911 365.937866,697.639038 357.158386,690.844421 
	C357.158386,690.844421 357.030212,691.002441 356.999512,690.619141 
	C355.657104,689.131348 354.345337,688.026855 353.033600,686.922363 
M684.573730,551.737610 
	C684.702332,551.158447 684.830933,550.579224 685.306824,549.341736 
	C689.145020,538.951172 690.982422,528.214539 689.782166,517.192261 
	C688.234741,502.982391 685.063293,489.190460 676.999878,476.420685 
	C676.721985,476.221527 676.444153,476.022369 676.160278,475.965210 
	C676.160278,475.965210 676.224243,475.838287 676.162292,475.256653 
	C675.785461,474.832794 675.408630,474.408936 675.001709,473.992126 
	C675.001709,473.992126 675.022522,473.967896 674.942078,473.352264 
	C674.287415,472.587860 673.632751,471.823486 673.004456,471.006866 
	C673.004456,471.006866 672.946960,471.017822 672.768921,470.366669 
	C667.225220,462.053680 659.847534,455.641510 651.502625,450.350586 
	C633.656372,439.035461 614.327637,433.691101 593.149170,436.846863 
	C578.077087,439.092682 564.336426,445.092987 552.137817,453.964874 
	C539.678040,463.026764 530.429871,474.874603 525.991821,490.001221 
	C525.991821,490.001221 525.965881,489.967163 525.436218,490.446716 
	C523.793274,495.801788 521.677917,501.063477 520.596741,506.529663 
	C517.472473,522.324280 519.074585,537.703613 525.753784,552.733276 
	C525.753784,552.733276 525.917419,552.984619 525.916199,553.630127 
	C526.238953,554.169189 526.561707,554.708313 526.886902,555.640503 
	C526.886902,555.640503 527.062866,555.992126 527.056519,556.688171 
	C528.044250,558.445984 529.031921,560.203796 530.106201,562.426025 
	C530.216980,562.739502 530.420410,562.971924 530.811401,563.844299 
	C537.005859,575.600220 544.742432,585.968384 556.350769,593.026489 
	C570.885620,601.864014 586.038635,608.663635 603.569336,607.693970 
	C610.596558,607.305237 617.775269,607.300842 624.579468,605.766479 
	C635.799927,603.236267 646.174927,598.489380 655.530396,591.474792 
	C668.264221,581.927063 677.088196,569.625610 683.114563,554.657898 
	C683.114563,554.657898 683.123840,554.274658 683.595337,553.842468 
	C683.768250,553.241333 683.941162,552.640198 684.025208,552.020691 
	C684.025208,552.020691 684.081421,552.091980 684.573730,551.737610 
M488.960968,471.433258 
	C488.681213,471.236664 488.401459,471.040070 488.174622,470.916290 
	C488.174622,470.916290 488.187683,470.827209 488.082092,470.193756 
	C487.113922,469.083557 486.145752,467.973328 485.080322,466.839294 
	C485.080322,466.839294 485.176514,466.811401 485.045135,466.145996 
	C483.286499,464.225769 481.693237,462.115051 479.739960,460.419037 
	C472.218781,453.888519 464.708710,447.297211 454.950897,444.053955 
	C454.950897,444.053955 454.824341,444.063477 454.779388,443.730652 
	C454.510132,443.816833 454.240875,443.902985 453.511169,443.917847 
	C453.511169,443.917847 453.045380,443.929199 452.879211,443.224579 
	C451.959076,442.608704 451.105225,441.607361 450.108704,441.436127 
	C439.186279,439.558777 428.242767,436.356293 417.302765,436.347778 
	C397.889404,436.332642 380.909302,444.596588 365.954010,456.608215 
	C354.074341,466.149597 345.543518,478.254517 340.970551,492.990753 
	C340.970551,492.990753 340.982727,493.033966 340.503265,493.468048 
	C340.329193,494.300323 340.155121,495.132599 339.981659,495.988159 
	C339.981659,495.988159 339.965546,496.005005 339.437775,496.490662 
	C338.660370,499.994812 337.882935,503.498962 336.877441,507.790649 
	C332.570923,528.762939 337.615967,547.922729 347.874390,566.201843 
	C356.467194,581.513062 368.950897,592.039673 384.601166,599.951721 
	C400.486786,607.982666 417.193237,606.942200 433.856201,606.963928 
	C439.659790,606.971497 445.474426,604.531799 451.265076,603.131348 
	C452.366547,602.864929 453.466736,602.364685 454.418152,601.743591 
	C460.194824,597.972351 466.048462,594.301392 471.639954,590.269226 
	C476.540222,586.735535 482.254944,583.583984 485.667236,578.860229 
	C502.761078,555.196655 511.301758,529.194275 502.696106,500.051086 
	C500.113525,491.305084 495.109222,483.274231 491.057037,474.300171 
	C490.391815,473.510498 489.726593,472.720795 488.997894,471.986572 
	C488.997894,471.986572 489.076355,471.956055 488.960968,471.433258 
z"/>
<path fill="#CFB35E" opacity="1.000000" stroke="none" 
	d="
M357.110809,691.219666 
	C365.937866,697.639038 374.419342,704.870911 383.576416,711.111389 
	C393.734589,718.034241 403.906189,725.530701 415.155823,730.121155 
	C432.569122,737.226685 450.724152,742.738770 468.911865,747.637573 
	C479.714233,750.547241 491.182068,750.986389 502.694458,752.733154 
	C497.534485,753.123901 492.456390,756.457275 486.363922,753.332947 
	C483.018372,751.617249 477.818054,753.968872 473.835907,752.967712 
	C454.364807,748.072388 435.468872,741.559448 416.824829,733.911804 
	C401.724030,727.717468 389.206604,717.827271 375.592987,709.529114 
	C369.742920,705.963257 364.873016,700.749329 359.727325,696.096741 
	C358.492249,694.979980 357.933197,693.115540 357.110809,691.219666 
z"/>
<path fill="#CFB35E" opacity="1.000000" stroke="none" 
	d="
M353.024780,687.309021 
	C354.345337,688.026855 355.657104,689.131348 357.059540,690.539429 
	C355.772156,689.793945 354.394073,688.744812 353.024780,687.309021 
z"/>
<path fill="#D5B247" opacity="0.000000" stroke="none" 
	d="
M607.737305,889.375122 
	C607.993225,889.390564 608.131470,889.523254 608.269775,889.655884 
	C608.053040,889.601379 607.836365,889.546875 607.737305,889.375122 
z"/>
<path fill="#FBFCFB" opacity="0.000000" stroke="none" 
	d="
M279.063141,183.023758 
	C276.885925,179.758682 274.092987,176.744629 272.641449,173.183746 
	C267.253448,159.966110 274.796906,149.825394 287.909729,147.028488 
	C296.404205,145.216644 305.174591,149.990036 308.901794,157.465317 
	C313.081299,165.847641 311.049896,174.799622 302.756653,182.476807 
	C294.516144,186.793839 286.802094,186.642075 279.063141,183.023758 
z"/>
<path fill="#B19E58" opacity="0.000000" stroke="none" 
	d="
M279.206329,183.332001 
	C286.802094,186.642075 294.516144,186.793839 302.579376,182.744171 
	C295.526398,189.817352 287.750458,190.396072 279.206329,183.332001 
z"/>
<path fill="#D5B247" opacity="0.000000" stroke="none" 
	d="
M463.739655,245.381012 
	C463.994049,245.396454 464.131165,245.527435 464.268280,245.658432 
	C464.052979,245.604477 463.837708,245.550522 463.739655,245.381012 
z"/>
<path fill="#D6B247" opacity="0.000000" stroke="none" 
	d="
M453.045380,443.929199 
	C453.045380,443.929199 453.511169,443.917847 453.953796,443.981873 
	C454.396423,444.045868 454.824341,444.063477 454.824341,444.063477 
	C454.824341,444.063477 454.950897,444.053955 455.000214,444.452545 
	C456.120178,446.080719 457.009308,447.558838 458.293213,448.496368 
	C463.584137,452.359833 468.962341,456.106812 474.373047,459.802094 
	C477.916931,462.222351 481.571503,464.480591 485.176514,466.811401 
	C485.176514,466.811401 485.080322,466.839294 485.072388,467.230713 
	C486.105530,468.690491 487.146606,469.758850 488.187683,470.827209 
	C488.187683,470.827209 488.174622,470.916290 488.208130,471.137695 
	C488.519867,471.558044 488.798126,471.757050 489.076355,471.956055 
	C489.076355,471.956055 488.997894,471.986572 489.030121,472.298584 
	C489.779663,473.378998 490.497009,474.147369 491.214325,474.915771 
	C495.109222,483.274231 500.113525,491.305084 502.696106,500.051086 
	C511.301758,529.194275 502.761078,555.196655 485.667236,578.860229 
	C482.254944,583.583984 476.540222,586.735535 471.639954,590.269226 
	C466.048462,594.301392 460.194824,597.972351 454.418152,601.743591 
	C453.466736,602.364685 452.366547,602.864929 451.265076,603.131348 
	C445.474426,604.531799 439.659790,606.971497 433.856201,606.963928 
	C417.193237,606.942200 400.486786,607.982666 384.601166,599.951721 
	C368.950897,592.039673 356.467194,581.513062 347.874390,566.201843 
	C337.615967,547.922729 332.570923,528.762939 337.291534,507.226562 
	C341.477631,503.750122 340.788239,499.891693 339.965546,496.005005 
	C339.965546,496.005005 339.981659,495.988159 340.254578,495.789703 
	C340.679260,494.738831 340.830994,493.886383 340.982727,493.033966 
	C340.982727,493.033966 340.970551,492.990753 341.272705,492.794006 
	C343.021545,490.458405 344.593445,488.392212 345.886810,486.164307 
	C348.040283,482.454803 349.536438,478.251526 352.200439,474.982239 
	C354.848724,471.732178 358.766815,469.554535 361.827789,466.595917 
	C370.621613,458.096252 380.512329,451.038574 391.886444,446.794037 
	C401.147308,443.338074 410.058167,437.629852 420.625854,439.053589 
	C426.731079,439.876099 432.764069,441.249786 438.817047,442.439209 
	C442.531281,443.169067 446.204956,444.119965 449.934570,444.747070 
	C450.898438,444.909119 452.004608,444.224762 453.045380,443.929199 
M421.494324,556.123413 
	C425.856964,555.196106 430.543274,554.995789 434.528656,553.221191 
	C457.101196,543.170227 463.506653,510.829987 438.763367,493.832611 
	C429.707733,487.611877 420.230408,488.293945 410.081360,490.706726 
	C394.237732,494.473267 383.561188,514.141418 386.671844,527.631104 
	C390.544678,544.426025 403.084015,555.181335 421.494324,556.123413 
z"/>
<path fill="#D6B247" opacity="0.000000" stroke="none" 
	d="
M530.716431,563.123291 
	C530.420410,562.971924 530.216980,562.739502 530.066284,561.811890 
	C529.038513,559.462585 528.050659,557.727356 527.062866,555.992126 
	C527.062866,555.992126 526.886902,555.640503 526.911255,555.107605 
	C526.596191,554.044678 526.256836,553.514648 525.917419,552.984619 
	C525.917419,552.984619 525.753784,552.733276 525.839722,552.127930 
	C525.784851,549.715820 526.144531,547.673279 525.422424,546.140259 
	C520.516541,535.724915 521.612366,524.878601 522.842773,514.030579 
	C523.754150,505.994720 524.915771,497.987274 525.965881,489.967163 
	C525.965881,489.967163 525.991821,490.001221 526.338257,489.958374 
	C527.334595,489.447906 528.292053,489.123688 528.587341,488.490631 
	C531.967468,481.242371 534.792114,474.316803 542.457336,469.404877 
	C551.459412,463.636261 558.735413,455.176910 566.787842,447.915405 
	C567.244629,447.503448 567.931274,447.289581 568.548523,447.121246 
	C574.464294,445.507721 580.365417,443.831604 586.316833,442.359894 
	C591.364868,441.111542 596.443359,439.934113 601.563782,439.044403 
	C607.301147,438.047577 612.545105,440.243103 617.931213,441.873016 
	C624.672791,443.913147 631.898315,444.580658 638.393066,447.156555 
	C647.940430,450.943237 657.125610,455.632996 664.052917,463.812042 
	C666.475891,466.672760 669.951843,468.641663 672.946960,471.017822 
	C672.946960,471.017822 673.004456,471.006866 672.994507,471.382935 
	C673.663879,472.495300 674.343201,473.231598 675.022522,473.967896 
	C675.022522,473.967896 675.001709,473.992126 675.024170,474.298523 
	C675.439148,475.016022 675.831665,475.427155 676.224243,475.838287 
	C676.224243,475.838287 676.160278,475.965210 676.218872,476.158630 
	C676.565125,476.547760 676.852844,476.743500 677.140503,476.939270 
	C685.063293,489.190460 688.234741,502.982391 689.782166,517.192261 
	C690.982422,528.214539 689.145020,538.951172 684.888611,549.851318 
	C684.340759,550.937988 684.211121,551.515015 684.081421,552.091980 
	C684.081421,552.091980 684.025208,552.020691 683.781311,552.199158 
	C683.399597,553.009949 683.261719,553.642334 683.123840,554.274658 
	C683.123840,554.274658 683.114563,554.657898 682.711426,554.970581 
	C680.026428,557.599182 677.488647,559.716187 675.507507,562.265686 
	C667.353210,572.759766 660.213989,584.160583 648.382629,591.224609 
	C644.751465,593.392639 641.534180,596.463684 637.682251,598.017822 
	C613.692261,607.697693 589.807861,608.571594 566.455505,595.914429 
	C564.093689,594.634338 562.524292,591.528381 560.113708,590.765625 
	C550.138489,587.608765 545.055237,579.065857 538.517151,572.121338 
	C535.798340,569.233582 533.309753,566.129211 530.716431,563.123291 
M621.648926,551.264587 
	C624.306946,549.021912 627.248901,547.038940 629.576233,544.493896 
	C643.143372,529.657654 641.994202,510.716248 627.020569,497.387970 
	C617.261963,488.701691 606.366760,487.401581 594.036194,490.769592 
	C580.136353,494.566284 568.346802,511.099243 570.417908,525.314697 
	C573.949463,549.553955 600.121216,563.957153 621.648926,551.264587 
z"/>
<path fill="#D2B65D" opacity="0.000000" stroke="none" 
	d="
M530.763916,563.483765 
	C533.309753,566.129211 535.798340,569.233582 538.517151,572.121338 
	C545.055237,579.065857 550.138489,587.608765 560.113708,590.765625 
	C562.524292,591.528381 564.093689,594.634338 566.455505,595.914429 
	C589.807861,608.571594 613.692261,607.697693 637.682251,598.017822 
	C641.534180,596.463684 644.751465,593.392639 648.382629,591.224609 
	C660.213989,584.160583 667.353210,572.759766 675.507507,562.265686 
	C677.488647,559.716187 680.026428,557.599182 682.617188,555.137451 
	C677.088196,569.625610 668.264221,581.927063 655.530396,591.474792 
	C646.174927,598.489380 635.799927,603.236267 624.579468,605.766479 
	C617.775269,607.300842 610.596558,607.305237 603.569336,607.693970 
	C586.038635,608.663635 570.885620,601.864014 556.350769,593.026489 
	C544.742432,585.968384 537.005859,575.600220 530.763916,563.483765 
z"/>
<path fill="#D2B65D" opacity="0.000000" stroke="none" 
	d="
M672.857910,470.692261 
	C669.951843,468.641663 666.475891,466.672760 664.052917,463.812042 
	C657.125610,455.632996 647.940430,450.943237 638.393066,447.156555 
	C631.898315,444.580658 624.672791,443.913147 617.931213,441.873016 
	C612.545105,440.243103 607.301147,438.047577 601.563782,439.044403 
	C596.443359,439.934113 591.364868,441.111542 586.316833,442.359894 
	C580.365417,443.831604 574.464294,445.507721 568.548523,447.121246 
	C567.931274,447.289581 567.244629,447.503448 566.787842,447.915405 
	C558.735413,455.176910 551.459412,463.636261 542.457336,469.404877 
	C534.792114,474.316803 531.967468,481.242371 528.587341,488.490631 
	C528.292053,489.123688 527.334595,489.447906 526.321289,489.941650 
	C530.429871,474.874603 539.678040,463.026764 552.137817,453.964874 
	C564.336426,445.092987 578.077087,439.092682 593.149170,436.846863 
	C614.327637,433.691101 633.656372,439.035461 651.502625,450.350586 
	C659.847534,455.641510 667.225220,462.053680 672.857910,470.692261 
z"/>
<path fill="#D3B75E" opacity="0.000000" stroke="none" 
	d="
M452.962280,443.576904 
	C452.004608,444.224762 450.898438,444.909119 449.934570,444.747070 
	C446.204956,444.119965 442.531281,443.169067 438.817047,442.439209 
	C432.764069,441.249786 426.731079,439.876099 420.625854,439.053589 
	C410.058167,437.629852 401.147308,443.338074 391.886444,446.794037 
	C380.512329,451.038574 370.621613,458.096252 361.827789,466.595917 
	C358.766815,469.554535 354.848724,471.732178 352.200439,474.982239 
	C349.536438,478.251526 348.040283,482.454803 345.886810,486.164307 
	C344.593445,488.392212 343.021545,490.458405 341.291992,492.782532 
	C345.543518,478.254517 354.074341,466.149597 365.954010,456.608215 
	C380.909302,444.596588 397.889404,436.332642 417.302765,436.347778 
	C428.242767,436.356293 439.186279,439.558777 450.108704,441.436127 
	C451.105225,441.607361 451.959076,442.608704 452.962280,443.576904 
z"/>
<path fill="#D2B65D" opacity="0.000000" stroke="none" 
	d="
M525.701050,490.206940 
	C524.915771,497.987274 523.754150,505.994720 522.842773,514.030579 
	C521.612366,524.878601 520.516541,535.724915 525.422424,546.140259 
	C526.144531,547.673279 525.784851,549.715820 525.868286,551.980713 
	C519.074585,537.703613 517.472473,522.324280 520.596741,506.529663 
	C521.677917,501.063477 523.793274,495.801788 525.701050,490.206940 
z"/>
<path fill="#D3B75E" opacity="0.000000" stroke="none" 
	d="
M485.110840,466.478699 
	C481.571503,464.480591 477.916931,462.222351 474.373047,459.802094 
	C468.962341,456.106812 463.584137,452.359833 458.293213,448.496368 
	C457.009308,447.558838 456.120178,446.080719 454.995483,444.515808 
	C464.708710,447.297211 472.218781,453.888519 479.739960,460.419037 
	C481.693237,462.115051 483.286499,464.225769 485.110840,466.478699 
z"/>
<path fill="#D3B75E" opacity="0.000000" stroke="none" 
	d="
M339.701660,496.247833 
	C340.788239,499.891693 341.477631,503.750122 337.405579,506.832825 
	C337.882935,503.498962 338.660370,499.994812 339.701660,496.247833 
z"/>
<path fill="#D2B65D" opacity="0.000000" stroke="none" 
	d="
M527.059692,556.340149 
	C528.050659,557.727356 529.038513,559.462585 530.022949,561.579712 
	C529.031921,560.203796 528.044250,558.445984 527.059692,556.340149 
z"/>
<path fill="#D3B75E" opacity="0.000000" stroke="none" 
	d="
M488.134888,470.510498 
	C487.146606,469.758850 486.105530,468.690491 485.121033,467.242615 
	C486.145752,467.973328 487.113922,469.083557 488.134888,470.510498 
z"/>
<path fill="#D2B65D" opacity="0.000000" stroke="none" 
	d="
M674.982300,473.660095 
	C674.343201,473.231598 673.663879,472.495300 672.981323,471.409058 
	C673.632751,471.823486 674.287415,472.587860 674.982300,473.660095 
z"/>
<path fill="#D3B75E" opacity="0.000000" stroke="none" 
	d="
M491.135681,474.607971 
	C490.497009,474.147369 489.779663,473.378998 489.061890,472.270844 
	C489.726593,472.720795 490.391815,473.510498 491.135681,474.607971 
z"/>
<path fill="#D3B75E" opacity="0.000000" stroke="none" 
	d="
M340.742981,493.251007 
	C340.830994,493.886383 340.679260,494.738831 340.254303,495.778076 
	C340.155121,495.132599 340.329193,494.300323 340.742981,493.251007 
z"/>
<path fill="#D2B65D" opacity="0.000000" stroke="none" 
	d="
M676.193237,475.547485 
	C675.831665,475.427155 675.439148,475.016022 675.039185,474.294983 
	C675.408630,474.408936 675.785461,474.832794 676.193237,475.547485 
z"/>
<path fill="#D2B65D" opacity="1.000000" stroke="none" 
	d="
M525.916809,553.307373 
	C526.256836,553.514648 526.596191,554.044678 526.910034,554.911011 
	C526.561707,554.708313 526.238953,554.169189 525.916809,553.307373 
z"/>
<path fill="#D2B65D" opacity="1.000000" stroke="none" 
	d="
M683.359619,554.058594 
	C683.261719,553.642334 683.399597,553.009949 683.825806,552.208374 
	C683.941162,552.640198 683.768250,553.241333 683.359619,554.058594 
z"/>
<path fill="#D2B65D" opacity="1.000000" stroke="none" 
	d="
M684.327637,551.914795 
	C684.211121,551.515015 684.340759,550.937988 684.714966,550.180542 
	C684.830933,550.579224 684.702332,551.158447 684.327637,551.914795 
z"/>
<path fill="#D3B75E" opacity="1.000000" stroke="none" 
	d="
M454.801880,443.897064 
	C454.824341,444.063477 454.396423,444.045868 454.184021,444.017517 
	C454.240875,443.902985 454.510132,443.816833 454.801880,443.897064 
z"/>
<path fill="#D3B75E" opacity="1.000000" stroke="none" 
	d="
M489.018677,471.694641 
	C488.798126,471.757050 488.519867,471.558044 488.181641,471.101257 
	C488.401459,471.040070 488.681213,471.236664 489.018677,471.694641 
z"/>
<path fill="#D2B65D" opacity="1.000000" stroke="none" 
	d="
M677.070190,476.679993 
	C676.852844,476.743500 676.565125,476.547760 676.221863,476.087616 
	C676.444153,476.022369 676.721985,476.221527 677.070190,476.679993 
z"/>
<path fill="#FDFDFD" opacity="1.000000" stroke="none" 
	d="
M421.040802,556.126465 
	C403.084015,555.181335 390.544678,544.426025 386.671844,527.631104 
	C383.561188,514.141418 394.237732,494.473267 410.081360,490.706726 
	C420.230408,488.293945 429.707733,487.611877 438.763367,493.832611 
	C463.506653,510.829987 457.101196,543.170227 434.528656,553.221191 
	C430.543274,554.995789 425.856964,555.196106 421.040802,556.126465 
z"/>
<path fill="#FDFDFD" opacity="1.000000" stroke="none" 
	d="
M621.329834,551.452881 
	C600.121216,563.957153 573.949463,549.553955 570.417908,525.314697 
	C568.346802,511.099243 580.136353,494.566284 594.036194,490.769592 
	C606.366760,487.401581 617.261963,488.701691 627.020569,497.387970 
	C641.994202,510.716248 643.143372,529.657654 629.576233,544.493896 
	C627.248901,547.038940 624.306946,549.021912 621.329834,551.452881 
z"/>
</svg>